HIERARCHY
ROOT Root
{
  OFFSET 0.0 0.0 0.0
  CHANNELS 6 Xposition Yposition Zposition Zrotation Yrotation Xrotation
  JOINT Hips
  {
    OFFSET 0.0 100.0 0.0
    CHANNELS 6 Xposition Yposition Zposition Zrotation Yrotation Xrotation
    JOINT Spine1
    {
      OFFSET 5.003913 -0.037094 -0.013727
      CHANNELS 3 Zrotation Yrotation Xrotation
      JOINT Spine2
      {
        OFFSET 7.125363 -1e-06 0.0
        CHANNELS 3 Zrotation Yrotation Xrotation
        JOINT Chest
        {
          OFFSET 7.594027 1e-06 0.0
          CHANNELS 3 Zrotation Yrotation Xrotation
          JOINT Neck1
          {
            OFFSET 26.313086 -0.460272 -0.181672
            CHANNELS 3 Zrotation Yrotation Xrotation
            JOINT Neck2
            {
              OFFSET 8.045911 0.0 0.0
              CHANNELS 3 Zrotation Yrotation Xrotation
              JOINT Head
              {
                OFFSET 6.432774 0.0 0.0
                CHANNELS 3 Zrotation Yrotation Xrotation
                JOINT HeadEnd
                {
                  OFFSET 16.169773 0.06451 0.00362
                  CHANNELS 3 Zrotation Yrotation Xrotation
                }
                JOINT Jaw
                {
                  OFFSET 0.108741 3.12938 0.002639
                  CHANNELS 3 Zrotation Yrotation Xrotation
                }
                JOINT LeftEye
                {
                  OFFSET 4.45173 8.166359 3.206392
                  CHANNELS 3 Zrotation Yrotation Xrotation
                }
                JOINT RightEye
                {
                  OFFSET 4.436895 8.135758 -3.222429
                  CHANNELS 3 Zrotation Yrotation Xrotation
                }
              }
            }
          }
          JOINT LeftShoulder
          {
            OFFSET 23.218927 5.195579 1.621656
            CHANNELS 3 Zrotation Yrotation Xrotation
            JOINT LeftArm
            {
              OFFSET 15.902118 2e-06 -2e-06
              CHANNELS 3 Zrotation Yrotation Xrotation
              JOINT LeftForeArm
              {
                OFFSET 28.739307 0.0 -1e-06
                CHANNELS 3 Zrotation Yrotation Xrotation
                JOINT LeftHand
                {
                  OFFSET 27.093981 -4e-06 0.0
                  CHANNELS 3 Zrotation Yrotation Xrotation
                  JOINT LeftHandThumb1
                  {
                    OFFSET 2.276781 3.380274 0.83384
                    CHANNELS 3 Zrotation Yrotation Xrotation
                    JOINT LeftHandThumb2
                    {
                      OFFSET 4.705309 -1e-06 -1e-06
                      CHANNELS 3 Zrotation Yrotation Xrotation
                      JOINT LeftHandThumb3
                      {
                        OFFSET 2.798515 0.0 3e-06
                        CHANNELS 3 Zrotation Yrotation Xrotation
                        JOINT LeftHandThumbEnd
                        {
                          OFFSET 3.180793 4e-06 -4e-06
                          CHANNELS 3 Zrotation Yrotation Xrotation
                        }
                      }
                    }
                  }
                  JOINT LeftHandIndex1
                  {
                    OFFSET 3.247786 2.352677 0.137192
                    CHANNELS 3 Zrotation Yrotation Xrotation
                    JOINT LeftHandIndex2
                    {
                      OFFSET 6.367095 1e-06 0.0
                      CHANNELS 3 Zrotation Yrotation Xrotation
                      JOINT LeftHandIndex3
                      {
                        OFFSET 3.662364 0.0 0.0
                        CHANNELS 3 Zrotation Yrotation Xrotation
                        JOINT LeftHandIndex4
                        {
                          OFFSET 2.329242 4e-06 -4e-06
                          CHANNELS 3 Zrotation Yrotation Xrotation
                          JOINT LeftHandIndexEnd
                          {
                            OFFSET 2.767823 1e-06 0.0
                            CHANNELS 3 Zrotation Yrotation Xrotation
                          }
                        }
                      }
                    }
                  }
                  JOINT LeftHandMiddle1
                  {
                    OFFSET 3.163612 0.945023 -0.406112
                    CHANNELS 3 Zrotation Yrotation Xrotation
                    JOINT LeftHandMiddle2
                    {
                      OFFSET 6.276789 3e-06 0.0
                      CHANNELS 3 Zrotation Yrotation Xrotation
                      JOINT LeftHandMiddle3
                      {
                        OFFSET 4.35652 -1e-06 4e-06
                        CHANNELS 3 Zrotation Yrotation Xrotation
                        JOINT LeftHandMiddle4
                        {
                          OFFSET 2.996877 0.0 8e-06
                          CHANNELS 3 Zrotation Yrotation Xrotation
                          JOINT LeftHandMiddleEnd
                          {
                            OFFSET 2.323256 3e-06 -4e-06
                            CHANNELS 3 Zrotation Yrotation Xrotation
                          }
                        }
                      }
                    }
                  }
                  JOINT LeftHandRing1
                  {
                    OFFSET 2.882606 -0.309162 0.107445
                    CHANNELS 3 Zrotation Yrotation Xrotation
                    JOINT LeftHandRing2
                    {
                      OFFSET 6.033198 0.0 4e-06
                      CHANNELS 3 Zrotation Yrotation Xrotation
                      JOINT LeftHandRing3
                      {
                        OFFSET 4.350578 3e-06 0.0
                        CHANNELS 3 Zrotation Yrotation Xrotation
                        JOINT LeftHandRing4
                        {
                          OFFSET 2.651321 2e-06 -7e-06
                          CHANNELS 3 Zrotation Yrotation Xrotation
                          JOINT LeftHandRingEnd
                          {
                            OFFSET 1.937663 1e-06 -4e-06
                            CHANNELS 3 Zrotation Yrotation Xrotation
                          }
                        }
                      }
                    }
                  }
                  JOINT LeftHandPinky1
                  {
                    OFFSET 2.865315 -1.525436 0.575687
                    CHANNELS 3 Zrotation Yrotation Xrotation
                    JOINT LeftHandPinky2
                    {
                      OFFSET 5.54936 1e-06 -8e-06
                      CHANNELS 3 Zrotation Yrotation Xrotation
                      JOINT LeftHandPinky3
                      {
                        OFFSET 3.070974 0.0 -4e-06
                        CHANNELS 3 Zrotation Yrotation Xrotation
                        JOINT LeftHandPinky4
                        {
                          OFFSET 1.549672 1e-06 0.0
                          CHANNELS 3 Zrotation Yrotation Xrotation
                          JOINT LeftHandPinkyEnd
                          {
                            OFFSET 1.952123 0.0 0.0
                            CHANNELS 3 Zrotation Yrotation Xrotation
                          }
                        }
                      }
                    }
                  }
                }
              }
            }
          }
          JOINT RightShoulder
          {
            OFFSET 23.161716 5.296122 -1.380114
            CHANNELS 3 Zrotation Yrotation Xrotation
            JOINT RightArm
            {
              OFFSET -16.027195 -2e-06 1.1e-05
              CHANNELS 3 Zrotation Yrotation Xrotation
              JOINT RightForeArm
              {
                OFFSET -28.736639 4e-06 2e-06
                CHANNELS 3 Zrotation Yrotation Xrotation
                JOINT RightHand
                {
                  OFFSET -27.133619 6e-06 0.0
                  CHANNELS 3 Zrotation Yrotation Xrotation
                  JOINT RightHandThumb1
                  {
                    OFFSET -2.274328 -3.351035 -0.83067
                    CHANNELS 3 Zrotation Yrotation Xrotation
                    JOINT RightHandThumb2
                    {
                      OFFSET -4.703594 -3e-06 2e-06
                      CHANNELS 3 Zrotation Yrotation Xrotation
                      JOINT RightHandThumb3
                      {
                        OFFSET -2.794935 -4e-06 -3e-06
                        CHANNELS 3 Zrotation Yrotation Xrotation
                        JOINT RightHandThumbEnd
                        {
                          OFFSET -3.183852 4e-06 1e-06
                          CHANNELS 3 Zrotation Yrotation Xrotation
                        }
                      }
                    }
                  }
                  JOINT RightHandIndex1
                  {
                    OFFSET -3.253496 -2.33755 -0.127667
                    CHANNELS 3 Zrotation Yrotation Xrotation
                    JOINT RightHandIndex2
                    {
                      OFFSET -6.344434 0.0 0.0
                      CHANNELS 3 Zrotation Yrotation Xrotation
                      JOINT RightHandIndex3
                      {
                        OFFSET -3.654871 0.0 -8e-06
                        CHANNELS 3 Zrotation Yrotation Xrotation
                        JOINT RightHandIndex4
                        {
                          OFFSET -2.327586 -1e-06 0.0
                          CHANNELS 3 Zrotation Yrotation Xrotation
                          JOINT RightHandIndexEnd
                          {
                            OFFSET -2.770001 3e-06 8e-06
                            CHANNELS 3 Zrotation Yrotation Xrotation
                          }
                        }
                      }
                    }
                  }
                  JOINT RightHandMiddle1
                  {
                    OFFSET -3.168223 -0.944764 0.411762
                    CHANNELS 3 Zrotation Yrotation Xrotation
                    JOINT RightHandMiddle2
                    {
                      OFFSET -6.266691 -1e-06 -4e-06
                      CHANNELS 3 Zrotation Yrotation Xrotation
                      JOINT RightHandMiddle3
                      {
                        OFFSET -4.348901 0.0 0.0
                        CHANNELS 3 Zrotation Yrotation Xrotation
                        JOINT RightHandMiddle4
                        {
                          OFFSET -3.00024 2e-06 -4e-06
                          CHANNELS 3 Zrotation Yrotation Xrotation
                          JOINT RightHandMiddleEnd
                          {
                            OFFSET -2.321477 -4e-06 -4e-06
                            CHANNELS 3 Zrotation Yrotation Xrotation
                          }
                        }
                      }
                    }
                  }
                  JOINT RightHandRing1
                  {
                    OFFSET -2.885654 0.293261 -0.119232
                    CHANNELS 3 Zrotation Yrotation Xrotation
                    JOINT RightHandRing2
                    {
                      OFFSET -6.032835 -1e-06 -4e-06
                      CHANNELS 3 Zrotation Yrotation Xrotation
                      JOINT RightHandRing3
                      {
                        OFFSET -4.33881 0.0 -4e-06
                        CHANNELS 3 Zrotation Yrotation Xrotation
                        JOINT RightHandRing4
                        {
                          OFFSET -2.654903 -4e-06 -4e-06
                          CHANNELS 3 Zrotation Yrotation Xrotation
                          JOINT RightHandRingEnd
                          {
                            OFFSET -1.935122 0.0 4e-06
                            CHANNELS 3 Zrotation Yrotation Xrotation
                          }
                        }
                      }
                    }
                  }
                  JOINT RightHandPinky1
                  {
                    OFFSET -2.866241 1.503904 -0.60527
                    CHANNELS 3 Zrotation Yrotation Xrotation
                    JOINT RightHandPinky2
                    {
                      OFFSET -5.553177 -2e-06 0.0
                      CHANNELS 3 Zrotation Yrotation Xrotation
                      JOINT RightHandPinky3
                      {
                        OFFSET -3.062664 -1e-06 -4e-06
                        CHANNELS 3 Zrotation Yrotation Xrotation
                        JOINT RightHandPinky4
                        {
                          OFFSET -1.546529 2e-06 4e-06
                          CHANNELS 3 Zrotation Yrotation Xrotation
                          JOINT RightHandPinkyEnd
                          {
                            OFFSET -1.952341 0.0 -4e-06
                            CHANNELS 3 Zrotation Yrotation Xrotation
                          }
                        }
                      }
                    }
                  }
                }
              }
            }
          }
        }
      }
    }
    JOINT LeftLeg
    {
      OFFSET -8.443107 2.567604 10.043214
      CHANNELS 3 Zrotation Yrotation Xrotation
      JOINT LeftShin
      {
        OFFSET 43.229198 1e-06 -1e-06
        CHANNELS 3 Zrotation Yrotation Xrotation
        JOINT LeftFoot
        {
          OFFSET 42.298611 1e-06 1e-06
          CHANNELS 3 Zrotation Yrotation Xrotation
          JOINT LeftToeBase
          {
            OFFSET 14.165858 1e-06 0.0
            CHANNELS 3 Zrotation Yrotation Xrotation
            JOINT LeftToeEnd
            {
              OFFSET 6.7141 -0.234461 0.0
              CHANNELS 3 Zrotation Yrotation Xrotation
            }
          }
        }
      }
    }
    JOINT RightLeg
    {
      OFFSET -8.303923 2.592729 -10.047278
      CHANNELS 3 Zrotation Yrotation Xrotation
      JOINT RightShin
      {
        OFFSET -43.369682 0.0 1e-06
        CHANNELS 3 Zrotation Yrotation Xrotation
        JOINT RightFoot
        {
          OFFSET -42.260784 4e-06 2e-06
          CHANNELS 3 Zrotation Yrotation Xrotation
          JOINT RightToeBase
          {
            OFFSET -14.222245 -2e-06 -1e-06
            CHANNELS 3 Zrotation Yrotation Xrotation
            JOINT RightToeEnd
            {
              OFFSET -6.660062 0.232574 -2e-06
              CHANNELS 3 Zrotation Yrotation Xrotation
            }
          }
        }
      }
    }
  }
}
MOTION
Frames: 5
Frame Time: 0.03333333333333333
0.0 0.0 0.0 0.0 -0.0 0.0 -1.093204 89.816078 4.53989 91.514008 -5.470202 90.173965 0.447267 1.227709 -0.515986 -10.234895 -0.095027 -1.138408 13.952555 3.551455 -1.834221 16.938702 0.037528 2.500848 -2.482047 -0.938778 -0.255553 -44.377258 -2.00685 -0.645011 6e-06 -0.0 0.0 0.079179 -0.028307 -0.098823 0.314089 -0.060018 -0.087491 0.273663 0.00786 -0.10504 -107.824486 -78.997932 120.620895 48.939846 -47.066547 5.792394 31.95171 0.725339 0.031134 0.409168 -10.614508 24.000858 17.636625 -26.322725 52.411186 -19.46666 -14.395594 29.410389 -0.0 -8.774821 -2e-06 16.372557 -17.711618 5.775552 -0.609776 -1.795653 -3.889326 -4.807089 -11.04681 -2.937851 4e-06 -20.976017 -1e-06 -5.019969 -25.033556 -4.031882 6e-06 -3e-06 0.0 -10.634533 -5.68697 -3.565588 10.573271 -17.922949 -3.113899 3e-06 -13.821209 1e-06 -0.501776 -31.181505 -4.027017 -11.253888 -59.922382 6.928651 -13.982712 -7.150197 -2.875043 13.772727 -8.40149 -3.21824 0.347734 -34.211544 0.771653 -0.963028 -17.733366 2.621019 -0.0 0.0 0.0 -17.346415 -20.095213 -4.201784 21.757555 -1.638373 3.866428 2e-06 -6.338822 1e-06 -1.697589 -22.59174 -6.194007 0.0 -3e-06 -2e-06 38.766022 -75.929115 155.016403 36.422089 -50.54641 -4.602164 26.283045 -0.370954 -0.082067 -1.61396 1.15909 34.47794 22.182114 -20.375895 49.933323 -16.701811 -16.743528 28.476528 -3e-06 -12.6906 -3e-06 16.442074 -17.606098 2.18257 -0.105919 -1.513857 -4.275884 -5.039041 -5.612871 -2.953555 4e-06 -11.020525 -1e-06 -6.111298 -15.895332 -3.840474 -0.0 -0.0 2e-06 -10.283369 -5.680287 -4.341838 11.028294 -11.302403 -2.372635 -1.384269 -14.23858 -6.32012 -0.625437 -26.924187 -3.827603 -4.156058 -49.605976 -4.149034 -13.708524 -7.363476 -3.72094 18.14115 -14.052738 -3.242676 6e-06 -18.78727 0.0 -0.429713 -8.456042 2.555503 -0.0 -1e-06 -1e-06 -15.923536 -20.094482 -5.473585 30.41921 -7.190823 1.735926 1e-06 -8.162925 -1e-06 -1.861902 -22.861467 -6.167942 -3e-06 -2e-06 -0.0 170.482773 -8.4251 -5.446623 58.260803 -0.602832 0.65374 -85.497475 15.242327 2.834808 -31.593504 2.241041 1.770783 -0.999999 0.0 -0.0 -42.005917 -7.35257 -12.767226 58.47377 0.102049 -0.090882 -90.625351 -1.807834 0.050451 -8.205165 0.75635 1.565129 -1.000002 1e-06 0.0 
0.0 0.0 0.0 0.0 -0.0 0.0 -1.657777 89.769417 6.169601 91.371208 -5.413132 90.721748 0.270209 1.329806 -0.53932 -10.311247 -0.091311 -1.244246 13.906453 3.613638 -1.964654 17.079357 0.281264 2.531061 -2.486447 -1.027918 -0.480506 -44.063465 -1.943374 -0.864301 8e-06 -0.0 0.0 0.064409 -0.042651 -0.121239 0.319362 -0.080298 -0.110488 0.289234 -0.000861 -0.12944 -107.27256 -79.206665 120.009392 48.624393 -47.078423 6.086479 31.907341 0.802133 0.081306 0.700512 -10.986318 23.92301 17.636625 -26.322729 52.411194 -19.466663 -14.395596 29.410385 -1e-06 -8.774821 -2e-06 16.225103 -17.604099 5.764613 -0.609776 -1.795654 -3.889327 -4.807088 -11.046811 -2.937851 5e-06 -20.976015 -1e-06 -5.019969 -25.033556 -4.031882 6e-06 -1e-06 0.0 -10.634534 -5.686971 -3.565588 10.573274 -17.922951 -3.1139 3e-06 -13.821209 0.0 -0.501775 -31.181505 -4.027018 -11.068129 -59.69323 6.768661 -13.982714 -7.150198 -2.875043 13.772731 -8.401491 -3.21824 0.347735 -34.211555 0.771653 -0.963028 -17.73337 2.621019 -1e-06 1e-06 1e-06 -17.346418 -20.095219 -4.201783 21.757557 -1.638375 3.866429 2e-06 -6.338823 1e-06 -1.697588 -22.591745 -6.194007 -0.0 -3e-06 -2e-06 39.036575 -75.64489 154.800995 36.12392 -50.325367 -4.990147 25.950068 -0.536451 -0.151711 -1.627575 0.621568 34.458302 22.182106 -20.375891 49.933319 -16.701807 -16.743528 28.47653 -3e-06 -12.690598 0.0 16.376291 -17.59347 2.237048 -0.105919 -1.513855 -4.275878 -5.039039 -5.612871 -2.95356 4e-06 -11.02052 -0.0 -6.111294 -15.895329 -3.840474 0.0 1e-06 0.0 -10.283369 -5.680288 -4.341838 11.02829 -11.302402 -2.372636 -1.384268 -14.238579 -6.320119 -0.625437 -26.924183 -3.827602 -4.187729 -49.637997 -4.156765 -13.70852 -7.363475 -3.72094 18.141146 -14.052736 -3.242674 7e-06 -18.787264 -0.0 -0.429713 -8.456041 2.555504 -0.0 -1e-06 -1e-06 -15.923532 -20.094481 -5.473586 30.419205 -7.190824 1.735926 2e-06 -8.162925 0.0 -1.861901 -22.861464 -6.167942 -0.0 -2e-06 -0.0 172.136276 -9.183442 -5.542969 57.2883 -0.684226 0.724066 -83.439911 15.588053 3.180254 -32.310398 2.245894 1.775689 -1.000001 -1e-06 0.0 -40.888062 -7.013704 -12.893991 59.061069 0.147544 -0.164279 -92.457306 -2.240558 -0.285503 -7.882073 0.74323 1.571298 -1.000001 -0.0 0.0 
0.0 0.0 0.0 0.0 -0.0 0.0 -2.201389 89.608803 7.733145 91.194412 -5.502244 91.300995 0.024495 1.386398 -0.572634 -10.394081 -0.106109 -1.388606 13.831142 3.686099 -2.087082 17.145613 0.439557 2.540122 -2.529968 -1.048725 -0.778661 -43.724483 -1.986212 -1.093364 5e-06 -0.0 0.0 0.05907 -0.051988 -0.140732 0.307125 -0.09847 -0.128907 0.287134 -0.002062 -0.151633 -107.665665 -79.363312 120.355705 48.157806 -46.862873 6.566113 32.071095 0.87337 0.117922 1.0106 -11.311388 23.858212 17.636629 -26.322721 52.411179 -19.46666 -14.395596 29.410385 -1e-06 -8.77482 -2e-06 16.211212 -17.561428 5.739388 -0.609776 -1.795654 -3.889327 -4.807088 -11.046809 -2.93785 6e-06 -20.976019 -1e-06 -5.019969 -25.03356 -4.03188 5e-06 -4e-06 -1e-06 -10.634534 -5.686969 -3.565587 10.573277 -17.922949 -3.1139 3e-06 -13.821209 1e-06 -0.501776 -31.181505 -4.027016 -11.10825 -59.556198 6.770201 -13.982712 -7.150197 -2.87504 13.77273 -8.401493 -3.218242 0.347735 -34.211555 0.771653 -0.963028 -17.733366 2.621019 0.0 -1e-06 0.0 -17.34642 -20.095217 -4.20178 21.757563 -1.638376 3.866428 2e-06 -6.338824 0.0 -1.697589 -22.591742 -6.194006 1e-06 -5e-06 -2e-06 39.009106 -75.295441 154.824234 35.512329 -50.012218 -4.726505 25.847071 -0.595531 -0.208296 -1.675526 0.176155 34.405327 22.182116 -20.3759 49.933327 -16.701811 -16.74353 28.476532 -3e-06 -12.690601 -0.0 16.30481 -17.547958 2.269913 -0.105919 -1.513855 -4.275882 -5.039041 -5.612872 -2.953559 4e-06 -11.020525 -0.0 -6.111297 -15.895332 -3.840472 0.0 1e-06 2e-06 -10.283369 -5.680286 -4.341841 11.028294 -11.302406 -2.372633 -1.384269 -14.238582 -6.320117 -0.625438 -26.924191 -3.827603 -4.201849 -49.565376 -4.17413 -13.708526 -7.363475 -3.720938 18.14115 -14.052741 -3.242678 6e-06 -18.787271 1e-06 -0.429712 -8.456047 2.555504 -1e-06 -2e-06 1e-06 -15.923532 -20.094482 -5.473589 30.419214 -7.190828 1.735926 3e-06 -8.162929 0.0 -1.861903 -22.861469 -6.167939 -0.0 -3e-06 -1e-06 173.501892 -10.019845 -5.677333 56.457352 -0.765775 0.783921 -81.866898 15.722392 3.454218 -32.839771 2.228352 1.772157 -0.999999 -0.0 -0.0 -40.0709 -6.737861 -13.167637 59.847763 0.196248 -0.230729 -94.261414 -2.614963 -0.570624 -7.597384 0.730648 1.573871 -1.000001 0.0 0.0 
0.0 0.0 0.0 0.0 -0.0 0.0 -2.750099 89.405487 9.158442 90.912201 -5.709418 91.902557 -0.225469 1.445707 -0.607566 -10.489198 -0.116496 -1.501251 13.745957 3.769133 -2.211353 17.115843 0.538877 2.522166 -2.561182 -1.032056 -1.033053 -43.520584 -2.049214 -1.306031 7e-06 -1e-06 -0.0 0.061136 -0.058877 -0.155312 0.28626 -0.107438 -0.142881 0.276057 -0.007733 -0.16751 -108.785957 -79.422363 121.391899 47.719936 -46.475376 7.021933 32.325382 0.845259 0.082842 1.364561 -11.34438 24.035324 17.636635 -26.322731 52.41119 -19.466663 -14.395596 29.410385 -1e-06 -8.774822 -3e-06 16.229334 -17.555828 5.710118 -0.609776 -1.795654 -3.889327 -4.80709 -11.046812 -2.93785 5e-06 -20.976021 -1e-06 -5.019969 -25.033562 -4.031881 6e-06 -0.0 1e-06 -10.634535 -5.686968 -3.565587 10.573277 -17.922953 -3.113901 3e-06 -13.821211 1e-06 -0.501776 -31.181505 -4.027016 -11.160158 -59.531689 6.79054 -13.982716 -7.150198 -2.875043 13.772731 -8.401493 -3.218241 0.347735 -34.211555 0.771654 -0.963028 -17.733372 2.62102 0.0 -1e-06 0.0 -17.34642 -20.095217 -4.201783 21.757559 -1.638376 3.86643 2e-06 -6.338824 1e-06 -1.697589 -22.591747 -6.194007 -0.0 -3e-06 -2e-06 38.802593 -74.934349 155.000961 34.766823 -49.67812 -4.165643 25.900097 -0.627189 -0.248986 -1.687341 -0.008526 34.438614 22.182112 -20.375898 49.933323 -16.701813 -16.74353 28.476532 -3e-06 -12.6906 0.0 16.223589 -17.490644 2.306703 -0.105918 -1.513856 -4.27588 -5.039041 -5.612873 -2.953557 4e-06 -11.020524 -1e-06 -6.111297 -15.895334 -3.840469 -0.0 1e-06 -0.0 -10.283369 -5.680288 -4.341835 11.028294 -11.302404 -2.372633 -1.384269 -14.238581 -6.320117 -0.625439 -26.924189 -3.8276 -4.226359 -49.484398 -4.124878 -13.708523 -7.363475 -3.720938 18.14115 -14.052739 -3.242678 6e-06 -18.78727 -0.0 -0.429711 -8.456044 2.555505 -0.0 -1e-06 1e-06 -15.923532 -20.094482 -5.473584 30.41921 -7.190825 1.735926 2e-06 -8.162926 -1e-06 -1.861901 -22.861469 -6.167942 1e-06 -3e-06 -2e-06 174.515427 -11.06061 -5.882008 55.863598 -0.843073 0.82559 -80.296753 15.880412 3.649715 -33.278889 2.221581 1.765283 -1.0 -0.0 0.0 -39.485798 -6.334722 -13.50624 60.617382 0.233796 -0.289801 -95.865036 -3.099537 -0.718326 -7.340837 0.721386 1.575987 -1.000002 1e-06 0.0 
0.0 0.0 0.0 0.0 -0.0 0.0 -3.27932 89.216179 10.446157 90.531013 -5.981167 92.491493 -0.462854 1.513289 -0.63571 -10.579058 -0.123813 -1.590874 13.684011 3.860756 -2.346778 16.974323 0.608391 2.505927 -2.584061 -1.019515 -1.218424 -43.449322 -2.123236 -1.495268 6e-06 0.0 -0.0 0.066492 -0.061957 -0.158827 0.271276 -0.106745 -0.146207 0.265531 -0.015002 -0.17134 -109.899231 -79.433571 122.428833 47.455898 -46.050137 7.278584 32.597107 0.779449 0.045386 1.740768 -11.171141 24.229445 17.636633 -26.322737 52.411205 -19.46666 -14.395597 29.410389 -1e-06 -8.774821 -2e-06 16.245098 -17.563261 5.694535 -0.609776 -1.795653 -3.889328 -4.807088 -11.046809 -2.937851 5e-06 -20.976015 -0.0 -5.01997 -25.03356 -4.031882 6e-06 -2e-06 0.0 -10.634533 -5.686969 -3.565589 10.573274 -17.922951 -3.113901 3e-06 -13.821209 1e-06 -0.501776 -31.181505 -4.027017 -11.179652 -59.551033 6.839793 -13.982715 -7.150198 -2.875043 13.772731 -8.401494 -3.218241 0.347735 -34.211555 0.771654 -0.963028 -17.73337 2.62102 -0.0 0.0 0.0 -17.34642 -20.095217 -4.201783 21.757561 -1.638375 3.866428 1e-06 -6.338824 1e-06 -1.69759 -22.591747 -6.194007 0.0 -3e-06 -2e-06 38.414749 -74.605942 155.350861 34.02721 -49.38559 -3.670317 25.968943 -0.666662 -0.278578 -1.663963 0.004457 34.641438 22.182117 -20.375898 49.933327 -16.701815 -16.74353 28.476536 -1e-06 -12.690602 -1e-06 16.167593 -17.429518 2.324184 -0.105919 -1.513857 -4.275882 -5.039042 -5.612873 -2.953556 4e-06 -11.020526 -0.0 -6.1113 -15.895334 -3.840473 0.0 1e-06 1e-06 -10.283372 -5.680292 -4.34184 11.028294 -11.302406 -2.372636 -1.38427 -14.238585 -6.320121 -0.625437 -26.924194 -3.827607 -4.199696 -49.400505 -4.079755 -13.708528 -7.363478 -3.720937 18.14115 -14.052739 -3.242678 4e-06 -18.78727 -1e-06 -0.429713 -8.456045 2.555505 -0.0 -2e-06 -0.0 -15.923539 -20.094486 -5.473582 30.419218 -7.190824 1.735927 1e-06 -8.162927 -0.0 -1.861905 -22.861473 -6.167943 1e-06 -3e-06 -2e-06 175.225281 -12.258699 -6.157685 55.565178 -0.934387 0.8643 -78.153976 15.968489 4.002644 -33.679962 2.230205 1.760434 -0.999998 0.0 -0.0 -38.9939 -5.803727 -13.902691 61.19062 0.261101 -0.338174 -97.264992 -3.616922 -0.769605 -7.125501 0.711515 1.576001 -1.000001 0.0 -0.0 
